<svg aria-hidden="true" style="position:absolute;width:0;height:0" xmlns="http://www.w3.org/2000/svg" overflow="hidden">
	<defs>
		<symbol id="icon-Group-1" viewBox="0 0 27 32">
			<path fill="none" stroke="var(--color1, #58a9a5)" stroke-linecap="round" stroke-width="4.8302" d="M2.415 16.906v12.679h12.679" />
			<path fill="none" stroke="var(--color1, #58a9a5)" stroke-linecap="round" stroke-width="4.8302" d="M24.755 16.906v12.679H12.076M24.755 16.906l-7.331-7.567-7.16-6.923" />
			<path fill="none" stroke="var(--color1, #58a9a5)" stroke-linecap="round" stroke-width="4.8302" d="m2.415 16.906 7.331-7.567 7.16-6.923" />
		</symbol>
	</defs>
	<defs>
		<symbol id="icon-untitled" viewBox="0 0 32 32">
			<path fill="var(--color1, #b1beda)" d="M6.991 1.95c.482.482.482 1.265 0 1.747L2.873 7.815c-.482.482-1.265.482-1.747 0s-.482-1.265 0-1.747L5.244 1.95c.482-.482 1.265-.482 1.747 0zM16 3.647c-7.732 0-14 6.268-14 14s6.268 14 14 14 14-6.268 14-14-6.268-14-14-14zm1.235 5.765c0-.682-.553-1.235-1.235-1.235s-1.235.553-1.235 1.235v8.235c0 .426.219.822.581 1.048l4.941 3.088c.578.362 1.341.186 1.702-.393s.186-1.341-.393-1.702l-4.361-2.725V9.412zM25.009 3.697c-.482-.482-.482-1.265 0-1.747s1.265-.482 1.747 0l4.118 4.118c.482.482.482 1.265 0 1.747s-1.265.482-1.747 0l-4.118-4.118z" />
		</symbol>
		<symbol id="icon-1" viewBox="0 0 32 32">
			<path fill="var(--color2, #014df5)" d="M2.688 0h26.624C30.797 0 32 1.203 32 2.688s-1.203 2.688-2.688 2.688H2.688C1.203 5.376 0 4.173 0 2.688S1.203 0 2.688 0zM2.688 12.545h26.624c1.485 0 2.688 1.203 2.688 2.688s-1.203 2.688-2.688 2.688H2.688C1.203 17.921 0 16.718 0 15.233s1.203-2.688 2.688-2.688zM2.688 25.088h26.624c1.485 0 2.688 1.203 2.688 2.688s-1.203 2.688-2.688 2.688H2.688C1.203 30.464 0 29.261 0 27.776s1.203-2.688 2.688-2.688z" />
		</symbol>
		<symbol id="icon-box-4-2" viewBox="0 0 32 32">
			<path fill="var(--color1, #b1beda)" d="M23.281 7.22c.105 0 .208.031.296.089l.77.513V5.089h-2.131v2.733l.77-.513c.088-.058.19-.09.296-.089zM12.627 7.22c1.765 0 3.196-1.431 3.196-3.196S14.392.828 12.627.828c-1.765 0-3.196 1.431-3.196 3.196s1.431 3.196 3.196 3.196z" />
			<path fill="var(--color1, #b1beda)" d="M27.543 13.613V5.09h-2.131v3.729c0 .197-.108.377-.281.47s-.384.082-.547-.027l-1.302-.869-1.302.868c-.163.109-.373.119-.547.027s-.281-.273-.282-.469V5.09H19.02v8.523h8.523zM5.582 30.435c.47.342 1.125.259 1.495-.189l3.729-4.794c.089-.117.154-.251.191-.393l.799-3.204-1.718-1.91-1.067 4.267c-.018.072-.051.139-.096.198l-3.521 4.528c-.173.223-.251.506-.215.787s.181.535.404.708v.002z" />
			<path fill="var(--color1, #b1beda)" d="M13.578 10.825c-.035-.072-.081-.139-.135-.199-.021-.029-.039-.059-.053-.091-.015-.021-.029-.044-.04-.068-.02-.053-.031-.109-.033-.166 0-.01-.006-.018-.006-.028v-.006l.171-2.067c-.708.145-1.441.107-2.131-.109l-.266 3.217-.586 7.008c-.024.294.075.586.273.805l4.381 4.866c.088.098.137.225.137.357v5.251c0 .588.477 1.065 1.065 1.065s1.065-.477 1.065-1.065v-5.86c.002-.263-.095-.517-.272-.712l-4.338-4.819c-.094-.108-.14-.25-.128-.393l.244-2.923-.726-.951c-.177-.235-.13-.57.105-.747s.57-.13.747.105l.84 1.104 1.443 1.719c.027.033.05.068.069.107.18.36.548.587.951.586h7.458c.588 0 1.065-.477 1.065-1.065s-.477-1.065-1.065-1.065h-6.472c-.149 0-.291-.062-.391-.171l-3.287-3.558c-.034-.038-.063-.079-.086-.125z" />
		</symbol>
		<symbol id="icon-Calendar" viewBox="0 0 32 32">
			<path fill="var(--color1, #b1beda)" d="M10.333 5.333c0-.552-.448-1-1-1s-1 .448-1 1v2.422c-1.991.281-3.563 1.856-3.83 3.865l-.115.871c-.02.148-.038.295-.056.443-.047.392.261.733.656.733h22.023c.395 0 .704-.341.656-.733-.018-.148-.037-.295-.056-.443l-.115-.871c-.266-2.008-1.839-3.583-3.83-3.865V5.333c0-.552-.448-1-1-1s-1 .448-1 1v2.224c-3.77-.336-7.563-.336-11.333 0V5.334zM27.926 16.301c-.012-.355-.305-.634-.661-.634H4.734c-.355 0-.649.279-.661.634-.079 2.41.067 4.825.439 7.214.281 1.808 1.75 3.197 3.571 3.376l1.591.157c4.207.415 8.444.415 12.651 0l1.591-.157c1.821-.18 3.29-1.568 3.571-3.376.372-2.388.518-4.803.439-7.214z" />
		</symbol>
		<symbol id="icon-calendar-17-1" viewBox="0 0 30 32">
			<path fill="var(--color2, #014df5)" d="M26.55 4.238h-1.475V2.763c0-.885-.59-1.475-1.475-1.475s-1.475.59-1.475 1.475v1.475H7.374V2.763c0-.885-.59-1.475-1.475-1.475s-1.475.59-1.475 1.475v1.475h-2.95c-.738 0-1.475.59-1.475 1.475v20.651c0 .885.738 1.475 1.475 1.475h8.998c-1.033-1.77-1.623-3.835-1.623-5.9 0-6.49 5.31-11.8 11.801-11.8 2.803 0 5.31 1.033 7.375 2.655v-7.08c0-.738-.738-1.475-1.475-1.475z" />
			<path fill="var(--color2, #014df5)" d="M20.65 13.089c-4.868 0-8.85 3.983-8.85 8.85s3.983 8.851 8.85 8.851c4.868 0 8.85-3.983 8.85-8.851s-3.983-8.85-8.85-8.85zm2.95 10.325h-2.95c-.885 0-1.475-.59-1.475-1.475v-4.425c0-.885.59-1.475 1.475-1.475s1.475.59 1.475 1.475v2.95H23.6c.885 0 1.475.59 1.475 1.475s-.59 1.475-1.475 1.475z" />
		</symbol>
		<symbol id="icon-clock" viewBox="0 0 32 32">
			<path fill="var(--color2, #014df5)" d="M.889 16C.889 7.654 7.655.889 16 .889S31.111 7.655 31.111 16c0 8.346-6.766 15.111-15.111 15.111S.889 24.345.889 16zm16.444-8.889c0-.736-.597-1.333-1.333-1.333s-1.333.597-1.333 1.333V16c0 .46.237.887.627 1.131l5.333 3.333c.624.39 1.447.2 1.837-.424s.2-1.447-.424-1.837l-4.707-2.942v-8.15z" />
		</symbol>
		<symbol id="icon-clock-19-2" viewBox="0 0 32 32">
			<path fill="var(--color1, #b1beda)" d="M16.357 1.473c-8.225 0-14.915 6.691-14.915 14.915s6.691 14.915 14.915 14.915c8.225 0 14.915-6.691 14.915-14.915S24.581 1.473 16.357 1.473zm7.094 22.63c-.242.243-.561.364-.879.364s-.637-.122-.879-.364l-6.215-6.215c-.234-.232-.364-.548-.364-.879V8.93c0-.687.557-1.243 1.243-1.243S17.6 8.243 17.6 8.93v7.565l5.851 5.851c.486.486.486 1.271 0 1.757z" />
		</symbol>
		<symbol id="icon-crane-1" viewBox="0 0 33 32">
			<path fill="var(--color3, #5a5a5a)" d="M5.295 24.505H27.57v1.856H5.295v-1.856zM1.583 28.218h29.7v3.712h-29.7v-3.712zM28.789 18.936l-8.864-6.166c.142-.393.22-.817.22-1.258h-1.856c0 1.023-.833 1.856-1.856 1.856s-1.856-.833-1.856-1.856c0-1.024.833-1.856 1.856-1.856h.928V5.85c1.816-.37 3.249-1.803 3.619-3.619h4.734V.375H7.152v1.856h4.734c.37 1.816 1.803 3.249 3.619 3.619v2.067c-2.072.535-3.29 2.736-2.584 4.796l-8.847 6.224h-2.49v3.712h29.7v-3.712h-2.493zm-21.49 0 6.643-4.674c1.395 1.264 3.512 1.287 4.934.039l6.662 4.634H7.299z" />
		</symbol>
		<symbol id="icon-credit-card-8-1" viewBox="0 0 32 32">
			<path fill="var(--color2, #014df5)" d="M14.593 10.445V8.546H3.201c-1.046 0-1.899.853-1.899 1.899v3.797h13.691c-.264-1.16-.401-2.409-.401-3.797zM31.603 18.039c-1.295 1.996-3.269 3.693-6.099 5.318-.435.249-.925.378-1.418.378s-.983-.129-1.413-.374c-2.829-1.629-4.804-3.328-6.1-5.322H1.302v9.493c0 1.048.853 1.899 1.899 1.899h26.582c1.048 0 1.899-.851 1.899-1.899v-9.493h-.078zM9.846 23.735H6.049c-.524 0-.949-.425-.949-.949s.425-.949.949-.949h3.797c.524 0 .949.425.949.949s-.425.949-.949.949z" />
			<path fill="var(--color2, #014df5)" d="m31.106 5.776-6.645-2.848c-.241-.103-.509-.103-.75 0l-6.645 2.848c-.347.148-.573.492-.573.872v3.797c0 5.223 1.931 8.276 7.122 11.267.146.084.309.125.473.125s.327-.042.473-.125c5.191-2.983 7.122-6.036 7.122-11.267V6.648c0-.38-.226-.723-.575-.872zm-3.429 4.313-3.797 4.747c-.182.224-.456.355-.742.355h-.04c-.302-.013-.581-.169-.75-.422l-1.899-2.848c-.291-.437-.173-1.025.264-1.316.433-.289 1.023-.175 1.316.264l1.179 1.768 2.985-3.733c.328-.408.927-.473 1.335-.148.41.325.475.923.15 1.333z" />
		</symbol>
		<symbol id="icon-free-icon-24-hours-support-3178923-1" viewBox="0 0 32 32">
			<path fill="var(--color2, #014df5)" d="M25.808.168H3.164C1.922.168.9 1.19.9 2.432v22.644c0 1.242 1.022 2.264 2.264 2.264h10.364c-.634-1.384-.983-2.911-.983-4.529 0-6.069 4.93-10.998 10.998-10.998 1.617 0 3.144.349 4.529.983V2.432c0-1.242-1.022-2.264-2.264-2.264zm-6.082 11.567c-.129.052-.259.078-.388.078-.246 0-.479-.091-.66-.259l-4.192-3.908-4.192 3.908c-.285.259-.699.336-1.048.181s-.582-.505-.582-.893V2.108h11.645v8.734c0 .388-.233.738-.582.893z" />
			<path fill="var(--color2, #014df5)" d="M23.543 14.401c-4.637 0-8.411 3.773-8.411 8.41s3.773 8.41 8.411 8.41c4.637 0 8.41-3.773 8.41-8.41s-3.773-8.41-8.41-8.41zm-1.294 10.998c.357 0 .647.29.647.647s-.29.647-.647.647h-3.235c-.357 0-.647-.29-.647-.647v-1.617c0-1.249.925-2.264 2.063-2.264h.404c.423 0 .769-.436.769-.971s-.345-.97-.769-.97h-1.819c-.357 0-.647-.29-.647-.647s.29-.647.647-.647h1.819c1.137 0 2.062 1.016 2.062 2.264s-.925 2.264-2.062 2.264h-.404c-.423 0-.769.436-.769.971v.97h2.588zm6.47-2.588v3.235c0 .357-.29.647-.647.647s-.647-.29-.647-.647v-2.588h-1.172c-1.137 0-2.062-1.016-2.062-2.264v-1.617c0-.357.29-.647.647-.647s.647.29.647.647v1.617c0 .534.345.971.769.971h1.172v-2.588c0-.357.29-.647.647-.647s.647.29.647.647v3.235z" />
		</symbol>
		<symbol id="icon-Group-311" viewBox="0 0 32 32">
			<path fill="var(--color2, #014df5)" d="M9.719 6.543c4.18-.363 8.383-.363 12.562 0l2.014.175c1.341.117 2.489.916 3.084 2.06.076.146.019.323-.121.41l-8.355 5.172c-1.792 1.109-4.051 1.133-5.865.06l-8.41-4.97c-.136-.08-.198-.246-.137-.391.544-1.293 1.768-2.216 3.216-2.342l2.014-.175z" />
			<path fill="var(--color2, #014df5)" d="M4.483 11.689c-.208-.123-.473.009-.498.25-.338 3.354-.256 6.74.246 10.079.265 1.76 1.701 3.11 3.474 3.264l2.014.175c4.18.363 8.383.363 12.562 0l2.014-.175c1.773-.154 3.21-1.503 3.475-3.264.517-3.436.588-6.922.215-10.372-.026-.242-.296-.372-.503-.244l-7.526 4.659c-2.424 1.501-5.481 1.532-7.936.082l-7.537-4.454z" />
		</symbol>
		<symbol id="icon-icn-resize-icn-md" viewBox="0 0 41 32">
			<path fill="var(--color4, #fff)" d="M38.935 31.302s2.503 0 2.503-2.509-2.503-10.036-12.514-10.036S16.41 26.284 16.41 28.793s2.503 2.509 2.503 2.509h20.022zm-19.968-2.509h19.912c.012-.001.023-.003.035-.005l.02-.005c-.005-.662-.418-2.584-1.902-4.315-1.382-1.623-3.809-3.201-8.109-3.201-4.297 0-6.725 1.581-8.109 3.201-1.484 1.731-1.9 3.656-1.902 4.315.018.004.037.007.055.01zm9.956-15.054c1.328 0 2.601-.529 3.539-1.47s1.466-2.217 1.466-3.548-.527-2.607-1.466-3.548-2.212-1.47-3.539-1.47c-1.328 0-2.601.529-3.539 1.47s-1.466 2.217-1.466 3.548.527 2.607 1.466 3.548 2.212 1.47 3.539 1.47zm7.509-5.017c0 .988-.194 1.967-.572 2.88s-.93 1.743-1.627 2.442c-.697.699-1.525 1.253-2.436 1.632s-1.887.573-2.873.573-1.962-.195-2.873-.573c-.911-.378-1.738-.933-2.436-1.632s-1.25-1.529-1.628-2.442-.572-1.892-.572-2.88c0-1.996.791-3.911 2.199-5.322s3.318-2.205 5.309-2.205 3.901.793 5.309 2.205c1.408 1.412 2.199 3.326 2.199 5.322zM18.752 19.46c-1.001-.316-2.033-.524-3.078-.62-.587-.056-1.177-.084-1.767-.083-10.011 0-12.514 7.527-12.514 10.036 0 1.673.833 2.509 2.503 2.509h10.552c-.371-.783-.556-1.642-.541-2.509 0-2.534.944-5.123 2.728-7.286.608-.738 1.316-1.428 2.117-2.047zm-5.045 1.806c-4.175.05-6.545 1.606-7.909 3.201-1.494 1.741-1.902 3.671-1.902 4.325h7.508c0-2.622.808-5.234 2.303-7.527zm-8.56-11.29c0-1.996.791-3.911 2.199-5.322s3.318-2.205 5.309-2.205 3.901.793 5.309 2.205 2.199 3.326 2.199 5.322-.791 3.911-2.199 5.322-3.318 2.205-5.309 2.205-3.901-.793-5.309-2.205-2.199-3.326-2.199-5.322zm7.508-5.018c-1.328 0-2.601.529-3.539 1.47S7.65 8.645 7.65 9.976s.527 2.607 1.466 3.548 2.212 1.47 3.539 1.47c1.328 0 2.601-.529 3.539-1.47s1.466-2.217 1.466-3.548-.527-2.607-1.466-3.548-2.212-1.47-3.539-1.47z" />
		</symbol>
		<symbol id="icon-Icon" viewBox="0 0 42 32">
			<path fill="var(--color2, #014df5)" d="M11.477.319c6.512-.454 13.053-.424 19.561.089l3.922.309c2.963.233 5.366 2.311 5.817 5.026l.247 1.491c.84 5.061.761 10.216-.232 15.253-.49 2.485-2.834 4.291-5.568 4.291h-21.68c-.499 0-.99.114-1.429.332L2.669 31.8c-.561.279-1.24.264-1.787-.038S0 30.914 0 30.326V11.32C0 5.566 4.8.784 11.01.352l.467-.032zm-.005 11.04c-1.667 0-3.019 1.249-3.019 2.789s1.352 2.789 3.019 2.789 3.019-1.249 3.019-2.789-1.352-2.789-3.019-2.789zm9.661 0c-1.667 0-3.019 1.249-3.019 2.789s1.352 2.789 3.019 2.789 3.019-1.249 3.019-2.789-1.352-2.789-3.019-2.789zm6.642 2.789c0-1.54 1.352-2.789 3.019-2.789s3.019 1.249 3.019 2.789c0 1.541-1.352 2.789-3.019 2.789s-3.019-1.249-3.019-2.789z" />
		</symbol>
		<symbol id="icon-no-alcohol-1" viewBox="0 0 31 32">
			<path fill="var(--color2, #014df5)" d="M12.017 14.126c0 .653.185 1.264.505 1.782l4.552-3.402h-5.057v1.62zM18.828 9.87c0-.02-.016-.036-.035-.036h-6.74c-.019 0-.036.016-.036.036v.89h6.811v-.89zM18.829 14.126v-.75l-5.017 3.749c.48.259 1.029.406 1.612.406 1.878 0 3.406-1.528 3.406-3.406z" />
			<path fill="var(--color2, #014df5)" d="M10.27 14.126V9.87c0-.983.8-1.782 1.782-1.782h6.74c.982 0 1.782.799 1.782 1.782v.02l5.609-4.192c-.073-.076-.147-.151-.221-.226-2.815-2.815-6.559-4.366-10.54-4.366S7.697 2.657 4.882 5.472.516 12.031.516 16.012c0 2.64.681 5.174 1.961 7.403l8.641-6.459c-.536-.813-.849-1.786-.849-2.83zM27.321 7.029l-6.746 5.042v2.055c0 2.543-1.853 4.662-4.279 5.078v2.773h2.241c.482 0 .873.391.873.873s-.391.873-.873.873h-6.229c-.482 0-.873-.391-.873-.873s.391-.873.873-.873h2.241v-2.773c-.826-.142-1.585-.48-2.227-.966l-8.885 6.64c.436.587.919 1.146 1.446 1.673 2.815 2.815 6.559 4.366 10.54 4.366s7.725-1.551 10.54-4.366c2.815-2.816 4.366-6.559 4.366-10.54 0-3.286-1.056-6.41-3.008-8.983z" />
		</symbol>
		<symbol id="icon-Phone" viewBox="0 0 32 32">
			<path fill="var(--color5, #e6edfe)" d="M6.667 13.147c2.555 5.565 7.102 9.99 12.755 12.389l.906.404c2.073.924 4.51.222 5.775-1.663l1.184-1.765c.385-.574.268-1.347-.27-1.781l-4.016-3.24c-.59-.476-1.457-.365-1.908.244l-1.242 1.676c-3.188-1.572-5.776-4.16-7.348-7.348l1.676-1.242c.609-.451.72-1.319.244-1.908l-3.24-4.016c-.434-.538-1.206-.655-1.78-.27L7.626 5.819C5.73 7.091 5.032 9.548 5.977 11.626l.692 1.522z" />
		</symbol>
		<symbol id="icon-phone" viewBox="0 0 32 32">
			<path fill="var(--color2, #014df5)" d="M28.444 12.197c-3.407 7.42-9.469 13.32-17.006 16.518l-1.208.538c-2.764 1.231-6.013.296-7.699-2.217L.952 24.683c-.513-.765-.357-1.796.36-2.374l5.354-4.32c.786-.634 1.943-.487 2.545.325l1.656 2.235c4.25-2.097 7.701-5.547 9.798-9.798L18.43 9.095c-.812-.602-.96-1.758-.325-2.545l4.32-5.355c.578-.717 1.609-.873 2.374-.36l2.369 1.589c2.529 1.695 3.459 4.972 2.199 7.743l-.922 2.029z" />
		</symbol>
		<symbol id="icon-tekegram" viewBox="0 0 36 32">
			<path fill="var(--color3, #5a5a5a)" d="m7.646 19.366-5.297-1.784c-.062-.025-.205-.083-.274-.116-.148-.071-.352-.179-.566-.331-.39-.276-1.031-.85-1.148-1.786-.147-1.172.724-1.882 1.103-2.142.237-.162.468-.279.633-.354.084-.038.157-.068.211-.089.027-.011.05-.019.068-.025L30.255 1.802c.025-.01.059-.024.1-.04.082-.032.196-.074.332-.117.261-.083.651-.187 1.073-.219.391-.03 1.009-.014 1.565.348.65.423.926 1.121.926 1.854 0 .082-.008.163-.024.243L29.26 28.914c-.015.075-.037.149-.066.221l-.001.003-.001.003-.002.006-.006.014-.016.036c-.012.028-.028.062-.048.102-.039.079-.095.183-.169.3-.145.229-.378.537-.723.813-.351.281-.823.531-1.418.612s-1.228-.018-1.882-.303c-.093-.041-.18-.092-.261-.154l-5.441-4.171-4.718 2.943c-.032.022-.072.047-.12.074-.093.054-.225.12-.388.175-.304.103-.791.187-1.324-.015-.005-.002-.009-.003-.014-.005-.103-.036-.203-.084-.296-.142-.186-.116-.346-.269-.483-.444-.266-.339-.51-.836-.741-1.566-.186-.591-1.031-2.655-1.868-4.658-.41-.982-.808-1.924-1.103-2.62-.121-.285-.225-.529-.305-.718-.074-.011-.147-.028-.22-.053zM31.21 4.113l-.004.002c-.014.006-.028.012-.042.017L3.274 15.073c-.015.006-.029.011-.044.016l-.016.006c-.018.007-.048.019-.086.036-.021.01-.044.02-.066.032.031.018.061.033.088.046.026.012.045.02.056.025l5.238 1.763c.096.032.185.075.267.127L26.022 6.99c.013-.007.029-.017.049-.028.039-.022.093-.052.158-.085.12-.061.312-.152.528-.219.151-.047.595-.178 1.075-.024.296.095.603.299.803.646.099.172.152.345.178.503.068.249.057.495.004.708-.115.458-.436.814-.729 1.087-.25.234-3.493 3.36-6.691 6.447-1.595 1.539-3.174 3.063-4.354 4.202l-.775.748 9.787 7.503c.224.08.357.076.418.068.073-.01.133-.038.194-.087.068-.055.128-.128.173-.199l.002-.003 4.817-24.288c-.072.017-.144.038-.213.06-.079.025-.144.049-.187.066-.021.008-.037.015-.045.018l-.003.001zM17.108 24.769l-1.952-1.497-.473 3.009 2.426-1.513zm-3.744-4.467 1.942-1.874c1.18-1.139 2.759-2.663 4.354-4.202l1.621-1.564-10.867 6.361.058.137c.296.698.696 1.644 1.108 2.631.309.738.631 1.516.925 2.235l.472-3.001c.045-.289.187-.54.387-.724z" />
		</symbol>
		<symbol id="icon-Union" viewBox="0 0 30 32">
			<path d="M30.052 8.409H7.441L0 .981h22.624c4.103 0 7.428 3.325 7.428 7.428zm0 3.857v7.428H18.747l-7.441-7.428h18.747zm0 18.714v-7.429h-7.441l7.441 7.429z" />
			<path d="M30.052 8.409H7.441L0 .981h22.624c4.103 0 7.428 3.325 7.428 7.428zm0 3.857v7.428H18.747l-7.441-7.428h18.747zm0 18.714v-7.429h-7.441l7.441 7.429z" />
		</symbol>
		<symbol id="icon-Vector" viewBox="0 0 42 32">
			<path fill="var(--color1, #b1beda)" d="M5.817 23.107c.312 0 .567-.255.567-.567v-4.545c0-.312.255-.567.567-.567h5.216c.312 0 .567-.255.567-.567v-4.545c0-.312.255-.567.567-.567h5.216c.312 0 .567-.255.567-.567V6.637c0-.312.255-.567.567-.567h5.216c.312 0 .567-.255.567-.567V.958c0-.312.255-.567.567-.567h15.424c.312 0 .567.255.567.567v6.133c0 .312-.255.567-.567.567h-5.216c-.312 0-.567.255-.567.567v4.545c0 .312-.255.567-.567.567h-5.216c-.312 0-.567.255-.567.567v4.545c0 .312-.255.567-.567.567h-5.216c-.312 0-.567.255-.567.567v4.545c0 .312-.255.567-.567.567h-5.216c-.312 0-.567.255-.567.567v4.545c0 .312-.255.567-.567.567H.601c-.312 0-.567-.255-.567-.567v-6.133c0-.312.255-.567.567-.567h5.216z" />
		</symbol>
		<symbol id="icon-Vector-3" viewBox="0 0 134 32">
			<path fill="none" stroke="var(--color2, #014df5)" stroke-width="8.1825" d="m6.399 27.748 9.346-18.693c1.206-2.412 4.649-2.412 5.855 0l6.419 12.838c1.206 2.412 4.649 2.412 5.855 0l6.419-12.838c1.206-2.412 4.649-2.412 5.855 0l6.419 12.838c1.206 2.412 4.649 2.412 5.855 0l6.419-12.838c1.206-2.412 4.649-2.412 5.855 0l6.419 12.838c1.206 2.412 4.649 2.412 5.855 0l6.419-12.838c1.206-2.412 4.649-2.412 5.855 0l6.419 12.838c1.206 2.412 4.649 2.412 5.855 0l6.419-12.838c1.206-2.412 4.649-2.412 5.855 0l9.346 18.693" />
		</symbol>
		<symbol id="icon-viber" viewBox="0 0 32 32">
			<path fill="var(--color3, #5a5a5a)" d="M11.387 8.844c.271.007.572.022.857.657.19.422.509 1.2.769 1.834.202.493.369.899.411.982.095.19.154.408.029.664-.015.03-.029.059-.042.087-.1.207-.171.355-.339.548-.069.079-.141.166-.213.253-.126.152-.251.304-.359.411-.191.19-.388.394-.169.773s.989 1.627 2.125 2.633c1.221 1.087 2.283 1.545 2.82 1.777.104.045.189.081.251.112.381.189.608.16.828-.095s.953-1.109 1.209-1.488c.249-.379.506-.321.857-.19s2.228 1.05 2.609 1.24c.075.038.146.071.211.103.265.127.445.214.522.342.095.161.095.919-.22 1.809-.323.89-1.876 1.743-2.58 1.809-.067.006-.133.014-.201.023-.645.078-1.463.177-4.379-.971-3.593-1.413-5.965-4.919-6.445-5.627-.038-.056-.064-.095-.078-.113l-.008-.011c-.218-.292-1.553-2.078-1.553-3.921 0-1.763.868-2.681 1.265-3.1.025-.027.048-.051.069-.074.352-.379.762-.474 1.019-.474s.513 0 .733.007z" />
			<path fill="var(--color3, #5a5a5a)" d="M1.458 29.825c-.121.44.28.846.721.731l6.826-1.783c2.155 1.167 4.58 1.787 7.05 1.787h.007c8.127 0 14.753-6.587 14.753-14.683 0-3.924-1.532-7.615-4.317-10.387s-6.486-4.304-10.436-4.304C7.935 1.186 1.31 7.773 1.31 15.87c-.001 2.576.679 5.106 1.971 7.338l-1.823 6.618zm3.966-6.028c.158-.574.079-1.188-.219-1.704-1.096-1.893-1.673-4.04-1.672-6.224 0-6.859 5.62-12.461 12.53-12.461 3.363 0 6.5 1.299 8.868 3.656 2.366 2.355 3.662 5.479 3.662 8.812 0 6.859-5.62 12.461-12.53 12.461h-.007c-2.099 0-4.161-.527-5.992-1.519-.496-.268-1.075-.339-1.62-.196l-4.092 1.069 1.073-3.894z" />
		</symbol>
	</defs>
</svg>
